<?xml version="1.0" encoding="UTF-8"?>
<svg id="Layer_1" xmlns="http://www.w3.org/2000/svg" version="1.1" viewBox="0 0 555.6 555.6">
  <!-- Generator: Adobe Illustrator 29.1.0, SVG Export Plug-In . SVG Version: 2.1.0 Build 142)  -->
  <defs>
    <style>
      .st0 {
        fill: #fff;
      }

      .st1 {
        fill: #00b0a5;
      }

      .st2 {
        fill: #b6e9ea;
        stroke: #00b0a5;
        stroke-miterlimit: 10;
        stroke-width: 5px;
      }
    </style>
  </defs>
  <rect class="st1" width="555.6" height="555.6" rx="121.8" ry="121.8"/>
  <g>
    <path class="st2" d="M199,443.23c-13.88-7.69-28.12-16.35-41.96-24.14-11.33-6.38-25.45-12.42-36.05-19.76-5.4-3.74-9.66-9.69-11.44-16.01-2.05-7.26-.97-15.98-1.09-23.47-.27-17.18-.4-34.36-.38-51.53.01-11,.05-63.37.78-65.4,3.38-9.38,11.74-6.91,18.87-3.57,10.78,5.04,23.3,12.1,33.84,17.93,5.24,2.9,13.27,5.71,13.44,12.45.27,10.39.07,21.09-.03,31.09-.02,1.79.67,3.43,2.13,4.6,3.2,2.22,18.36,10.91,20.35,10.54.7-.13,1.26-1.02,1.35-1.72l.05-32.57c1.9-5.6,6.53-2.9,10.33-1.08,14.13,6.76,27.93,16.22,42.1,23.13,2.6,1.8,4.33,4.71,4.51,7.92v147.6c-1.07,6.34-4.02,9.22-10.64,8.51-3.95-.42-14.83-7.66-19.05-9.94-8.93-4.84-18.18-9.63-27.11-14.58Z"/>
    <path class="st0" d="M443.5,444.51c-42,48.78-124.03,23.52-128.43-41.77-3.89-57.68,62.01-93.39,110.39-64.16,36.73,22.19,46.39,73.01,18.05,105.93ZM378.87,390.43h-25.37c-1.41,0-6.45,1.63-7.31,2.87-1.32,1.92-1.53,8.58,0,10.46.9,1.1,3.86,2.09,5.29,2.25,4.24.48,25.56-.82,27.18.45.61.48.64,1.08.73,1.78.93,7.04-1.27,17.33.09,24.03,1.5,7.4,13.24,7.86,15.86,1.01.82-4.19-1.21-24.82,1.31-26.83,1.43-1.14,20.91-.14,24.69-.43,6.25-.49,9.49-3.75,8.25-10.3-.72-3.8-4.96-4.88-8.33-5.24-4.05-.43-23.18.66-24.82-.31-.7-.41-.92-1.73-1.01-2.51-.87-7.64.75-16.72-.1-24.52-2.9-6.5-14.51-5.77-15.85,1.52-.66,3.59.62,24.96-.62,25.76Z"/>
    <path class="st2" d="M332.59,333.85c-26.95,21.83-37.25,57.37-25.29,90.4,1.49,4.13,5.82,10.56,6.74,13.97,1.03,3.84-.07,6.16-3.21,8.22-11.89,7.79-20.69,12.86-35.26,20.14-7.22,2.64-11.26-2.71-11.53-9.42v-144.49c.44-5.88,2.22-8.17,7.1-11.02,9.2-5.36,19.19-9.84,28.58-14.91,27.5-14.86,54.78-30.48,82.55-44.81,3.99-2.06,10.29-5.88,14.6-5.63,4.66.27,8.64,4.48,9.05,9.08.02,22.72-.05,44.18.02,66.82.02,7.36-7.69,3.6-12.17,3.32-22.91-1.41-43.31,3.86-61.18,18.34Z"/>
    <path class="st2" d="M237.32,285.32c-11.89-6.43-23.93-13.73-36.16-20.01-3.05-2.24-3.84-5.98-1.65-9.15,42-23.79,84.97-46.08,127.61-68.86,3.62-1.21,7.08-.91,10.57.5,16.13,6.53,32.51,16.24,49,25.55,5.97,3.06,11.32,7.69,3.86,13.05-8.13,5.85-21.91,11.52-31.09,16.54-32.37,17.72-64.64,35.55-97.35,52.79-1.73.22-3.63.32-5.33-.12-3.67-.95-15.28-8.03-19.48-10.3Z"/>
    <path class="st2" d="M148.76,239.43c-7.4-4.91-18.62-8.56-25.54-13.7-2.91-2.16-3.53-6-.78-8.59,38.49-21.25,77.91-40.71,116.78-61.32,11.28-5.15,23.35-4.23,34.51.68,9.49,4.17,21.66,10.29,30.74,15.34,7.17,3.99,11.44,7.34,2.41,13.33-4.87,3.23-89.87,48.51-126.7,67.97-.9.27-1.79.61-2.75.6-5.65-.06-17.25-8.39-22.94-11.13-1.3-.63-5.13-2.94-5.73-3.18Z"/>
    <path class="st0" d="M315.3,115.62c-3.14-2.08-7.03-3.38-10.44-4.45-4.01-1.26-8.45-2.15-12.16-4.18-4.49-2.45-2.13-5.8,1.57-7.44,8.89-3.95,20.5-3.77,25.92-13.43,2.84-5.06,5.96-21.34,8.85-23.77,1.9-1.59,4.27-.69,5.33,1.42,1.65,3.3,2.63,9.79,4.01,13.59,3.88,10.66,6.4,14.06,17.19,18.02,4.01,1.47,14.25,3.26,16.72,6.06,1.18,1.34,1.15,1.91.23,3.34-2.1,3.27-11.91,4.89-15.85,6.42-10.28,3.98-14.57,8.64-18.28,19-1.05,2.93-2.88,12.4-4.66,13.98-1.56,1.4-4.14,1.49-5.39-.33-2.1-4.7-3.05-9.8-4.57-14.7-1.23-3.95-2.73-8.17-5.69-11.25-.82-.85-1.75-1.61-2.77-2.28Z"/>
    <path class="st0" d="M400.38,141.93c3.19,2.64,14.01,3.26,14.76,5.7.55,1.8-.12,3.41-1.85,4.16-5.99,2.61-12.85,1.57-15.91,8.94-1.08,2.6-2.68,13.24-4.76,13.88-.78.24-2.69.28-3.45.02-.78-.27-1.2-1.5-1.48-2.18-.58-1.4-.99-2.86-1.38-4.32-.93-3.44-1.71-6.85-3.16-10.12-.15-.34-.31-.68-.53-.98-.72-.95-2.41-1.9-3.5-2.38-2.49-1.1-9.52-2.09-11.22-3.28-1.11-.78-1.06-2.54-.71-3.74.95-3.19,11.98-3.2,14.75-5.7,3.83-3.46,4.59-15.95,7.11-17.48,5.62-3.42,6.64,9.31,8.33,12.97.53,1.15,2.12,3.78,3,4.51Z"/>
  </g>
</svg>